<?xml version="1.0" standalone="yes"?>
<!DOCTYPE svg PUBLIC "-//W3C//DTD SVG 20010904//EN" "http://www.w3.org/TR/2001/REC-SVG-20010904/DTD/svg10.dtd">
<svg xmlns="http://www.w3.org/2000/svg" version="1.0" width="310.000000pt" height="310.000000pt" viewBox="0 0 310.000000 310.000000" preserveAspectRatio="xMidYMid meet" style="zoom: 1;" visibility="visible"><g stroke="#1685DE" id="banner" stroke-width="40px" fill="#000000" transform="translate(0.000000,310.000000) scale(0.100000,-0.100000)" visibility="visible"><path d="M1470,2948 c-158,-134 -312,-192 -541,-205 c-165,-9 -376,24 -614,96 c-54,17 -101,28 -104,26 c-2,-3 14,-44 36,-92 c112,-243 161,-427 169,-638 c10,-234 -16,-349 -154,-700 c-98,-250 -115,-316 -110,-429 c4,-78 9,-102 40,-168 c48,-103 89,-158 157,-211 c123,-97 251,-136 511,-157 c74,-6 162,-16 195,-21 c140,-24 286,-107 386,-219 l61,-68 l78,82 c142,148 258,197 528,222 c92,8 203,22 247,30 c221,44 358,140 445,314 c90,181 81,283 -59,632 c-126,315 -151,423 -151,644 c0,143 15,251 55,389 c28,97 90,256 131,337 c14,27 23,52 21,55 c-3,2 -49,-9 -103,-26 c-506,-156 -868,-129 -1126,84 l-64,52 l-34,-29" visibility="visible" fill=" #0211B1"></path></g><g id="oak-leafs" stroke="none" transform="translate(0.000000,310.000000) scale(0.100000,-0.100000)" fill="white"><path d="M511,1832 c-53,-29 -66,-78 -45,-167 c10,-38 17,-78 16,-87 c0,-9 -19,-40 -41,-68 c-49,-62 -57,-87 -42,-133 c15,-43 46,-73 96,-90 c58,-20 81,-63 66,-122 c-16,-62 -14,-90 8,-134 c28,-54 42,-62 128,-72 c84,-9 105,-23 145,-98 c21,-39 86,-70 146,-71 c41,0 112,22 112,35 c0,4 -22,27 -48,50 c-62,56 -163,184 -218,277 c-47,79 -139,286 -130,295 c2,3 24,-33 46,-78 c111,-222 279,-416 477,-550 c93,-64 251,-149 274,-149 c10,0 57,21 106,47 c289,152 521,387 649,656 c20,43 39,75 42,73 c7,-7 -53,-155 -95,-235 c-60,-112 -124,-201 -215,-296 l-87,-92 l35,-16 c42,-21 113,-22 157,-3 c34,14 70,52 99,104 c18,34 64,52 135,52 c78,0 145,91 123,168 c-14,51 -12,103 4,125 c8,10 36,26 63,36 c58,22 93,67 93,120 c0,38 -12,61 -63,120 c-32,37 -33,62 -7,153 c11,37 11,54 1,87 c-14,49 -45,72 -104,78 c-58,7 -95,-14 -149,-82 c-24,-30 -51,-58 -61,-61 c-9,-3 -43,4 -74,16 c-69,26 -109,21 -152,-19 c-39,-37 -46,-70 -33,-155 c7,-45 7,-75 1,-82 c-5,-6 -31,-14 -58,-16 c-73,-7 -121,-52 -121,-113 c0,-13 16,-44 36,-70 c19,-26 39,-58 45,-71 c12,-34 -5,-64 -36,-64 c-101,0 -138,-95 -74,-186 l34,-46 l-39,-33 c-21,-18 -70,-49 -109,-70 c-88,-48 -170,-56 -245,-23 c-78,34 -182,106 -182,125 c0,10 14,38 30,62 c34,50 36,69 15,116 c-17,34 -50,55 -88,55 c-58,0 -61,49 -7,121 c61,82 53,146 -24,183 c-19,9 -50,16 -70,16 c-46,0 -55,18 -43,83 c15,84 4,137 -34,169 c-47,40 -80,43 -155,17 l-64,-23 l-31,30 c-17,16 -38,41 -46,56 c-21,34 -82,68 -125,68 c-18,0 -49,-8 -67,-18" id="path1" visibility="visible"></path></g><g stroke="black" id="oak" stroke-width="5px" fill="#000000" transform="translate(0.000000,310.000000) scale(0.100000,-0.100000)" visibility="visible"><path d="M1472,1843 c-20,-17 -20,-21 -7,-82 c8,-36 12,-68 10,-72 c-3,-4 -42,-12 -87,-19 c-112,-16 -178,-43 -237,-96 c-69,-62 -105,-138 -104,-224 c0,-39 6,-80 16,-101 l16,-36 l83,33 c217,86 466,86 680,-1 c34,-14 65,-25 69,-25 c20,0 39,63 39,128 c0,57 -5,80 -30,130 c-59,118 -158,173 -351,197 l-46,6 l-5,80 c-5,91 -15,108 -46,82" id="oak-top" visibility="visible" fill="white"></path><path d="M1450,1284 c-123,-12 -260,-45 -319,-78 c-23,-12 -24,-19 -22,-82 c6,-218 84,-356 246,-433 c46,-22 96,-53 111,-70 l26,-30 l42,34 c22,19 73,50 112,69 c152,73 227,198 240,404 l7,99 l-55,21 c-94,35 -160,51 -253,62 c-49,5 -92,9 -95,8 c-3,-1 -21,-3 -40,-4" id="oak-bottom" visibility="visible" fill="white"></path></g><text stroke="none" style="outline-style:none;" id="title1" stroke-width="1px" x="150px" text-rendering="geometricPrecision" font-family="Copperplate" fill="#FFFFFF" font-size="17px" transform="" y="91.876px" text-anchor="middle" visibility="visible">Blau-Weiß Eichwege</text><text stroke="none" style="outline-style:none;" id="title2" stroke-width="1px" x="150px" text-rendering="geometricPrecision" font-family="Copperplate" fill="#FFFFFF" font-size="17px" y="115px" transform="" text-anchor="middle">SV</text><rect stroke="#1685DE" height="283.878754px" x="14.1px" id="frame" stroke-width="2px" width="272.778595px" y="10.875137px" fill="none" transform="" visibility="hidden"></rect></svg>