<?xml version="1.0" standalone="no"?>
<!DOCTYPE svg PUBLIC "-//W3C//DTD SVG 20010904//EN"
 "http://www.w3.org/TR/2001/REC-SVG-20010904/DTD/svg10.dtd">
<svg version="1.0" xmlns="http://www.w3.org/2000/svg"
 width="700.000000pt" height="700.000000pt" viewBox="0 0 700.000000 700.000000"
 preserveAspectRatio="xMidYMid meet">
<metadata>
Created by potrace 1.11, written by Peter Selinger 2001-2013
</metadata>
<g transform="translate(0.000000,700.000000) scale(0.100000,-0.100000)"
fill="#000000" stroke="none">
<path d="M297 6766 c-1 -6 -3 -1458 -2 -3226 l0 -3215 1538 -2 c1077 -1 1541
-4 1551 -12 9 -7 16 -7 23 0 8 8 455 11 1552 11 l1541 0 0 3227 0 3228 -3100
0 c-2201 0 -3100 -4 -3103 -11z m3008 -62 c-16 -13 -55 -44 -85 -67 -30 -23
-57 -45 -60 -48 -16 -18 -143 -96 -232 -143 -168 -88 -319 -136 -548 -175
-446 -77 -945 -24 -1605 169 -77 23 -147 43 -155 45 -146 36 -172 35 -185 -4
-8 -26 9 -75 90 -256 230 -512 332 -880 362 -1295 16 -214 8 -507 -17 -665
-19 -122 -96 -414 -130 -499 -5 -12 -29 -77 -54 -146 -46 -129 -179 -480 -196
-515 -11 -23 -87 -237 -123 -345 l-25 -75 -1 2023 -1 2022 1498 0 1497 -1 -30
-25z m3150 -2009 c0 -1119 -3 -2035 -6 -2035 -3 0 -6 6 -6 13 -1 25 -106 339
-138 412 -7 17 -55 138 -105 270 -51 132 -96 249 -101 260 -34 80 -132 399
-145 474 -3 14 -7 34 -10 43 -6 20 -9 39 -18 101 -4 27 -9 58 -11 70 -24 124
-24 639 0 797 2 14 6 45 10 70 39 285 182 723 365 1119 70 152 80 190 55 214
-9 9 -24 17 -33 17 -19 0 -163 -38 -267 -70 -444 -136 -879 -212 -1225 -213
-123 0 -296 9 -342 19 -12 2 -39 6 -58 9 -67 7 -216 45 -315 78 -199 68 -372
165 -559 316 l-89 71 1499 0 1499 0 0 -2035z m0 -3505 c0 -814 0 -820 -20
-821 -86 -4 -2975 -3 -2975 1 0 12 262 270 325 321 155 123 294 189 510 243
102 26 126 30 205 41 25 3 56 8 70 10 26 5 79 11 170 20 371 36 579 65 715
100 490 126 805 408 986 883 5 12 10 22 11 22 2 0 3 -369 3 -820z m-5991 545
c148 -272 406 -481 731 -590 95 -32 258 -71 335 -80 30 -4 57 -8 60 -10 3 -2
34 -6 70 -10 36 -3 72 -8 80 -10 8 -2 51 -7 95 -10 82 -6 167 -14 220 -20 17
-2 62 -6 100 -10 112 -10 268 -34 330 -50 169 -44 391 -158 541 -275 111 -87
311 -296 291 -302 -10 -3 -2863 -2 -2949 1 l-28 1 0 813 0 812 38 -85 c20 -47
59 -126 86 -175z"/>
</g>
</svg>
